Coordinates
version=1
nRows=15
nColumns=34
inDegrees=yes

Units are S.I. units (second, meters, Newtons, ...)
If the header above contains a line with 'inDegrees', this indicates whether rotational values are in degrees (yes) or radians (no).

endheader
time	pelvis_tilt	pelvis_list	pelvis_rotation	pelvis_tx	pelvis_ty	pelvis_tz	hip_flexion_r	hip_adduction_r	hip_rotation_r	knee_angle_r	ankle_angle_r	subtalar_angle_r	mtp_angle_r	hip_flexion_l	hip_adduction_l	hip_rotation_l	knee_angle_l	ankle_angle_l	subtalar_angle_l	mtp_angle_l	lumbar_extension	lumbar_bending	lumbar_rotation	arm_flex_r	arm_add_r	arm_rot_r	elbow_flex_r	pro_sup_r	arm_flex_l	arm_add_l	arm_rot_l	elbow_flex_l	pro_sup_l
     11.55000000	      2.85427918	      2.90813195	    190.99111135	      0.67838165	      1.09962425	      0.29675449	      7.31786536	      2.44482551	     25.26828879	      0.00000000	      4.11348475	     18.03172502	      0.00000000	      7.66940698	     -1.44750126	      4.32185658	      5.10136782	      9.94209544	     10.89589533	      0.00000000	    -10.41672373	      2.06120303	      5.46679812	     16.79238949	     -9.36615148	     19.77899436	     18.05716673	    119.72547025	     14.30693075	    -10.42278464	     38.36370734	     25.60048351	    110.45163878
     11.56666670	      2.89277982	      3.01206643	    191.60203816	      0.67482002	      1.10038288	      0.29965256	      7.16061406	      2.42190740	     25.33989519	      0.00000000	      4.07729308	     18.00629451	      0.00000000	      7.45814031	     -1.39754815	      4.59754051	      4.94315720	      9.86473850	     11.07047221	      0.00000000	    -10.05222721	      1.83731285	      5.87901455	     16.29940095	     -9.24613808	     19.90666310	     18.13883737	    119.74817918	     14.09072036	    -10.62503077	     38.28222072	     25.61398639	    110.42019141
     11.58333330	      3.09010082	      3.05294180	    192.33259595	      0.67101340	      1.10082970	      0.30283030	      7.13000067	      2.29041542	     25.20187740	      0.00000000	      4.25423927	     17.48797785	      0.00000000	      6.99736501	     -1.25828294	      5.64606215	      4.00065973	      9.76428917	     11.68714536	      0.00000000	     -9.46076278	      1.51251288	      6.36137943	     15.40941487	     -9.42573018	     20.24843667	     18.83433701	    119.74586829	     13.73331677	    -10.80328177	     38.04497283	     25.88615844	    110.33369636
     11.60000000	      3.10159088	      3.18438550	    193.12030177	      0.66710296	      1.10155996	      0.30538859	      6.92037153	      2.32780242	     25.17727798	      0.00000000	      4.39442489	     17.03703967	      0.00000000	      6.66291107	     -1.27800208	      6.37743649	      3.63588109	      9.53549372	     11.89511897	      0.00000000	     -9.06111968	      1.24718449	      6.73784516	     14.67585151	     -9.37027828	     20.60598657	     19.49764557	    119.74817918	     13.44914904	    -11.04059106	     37.79415897	     26.06536595	    110.25340912
     11.61666670	      3.05123259	      3.32576100	    194.35434525	      0.66407055	      1.10229167	      0.30936933	      6.65928777	      2.28570254	     25.52336787	      0.00000000	      4.10681132	     15.48654548	      0.00000000	      6.19536103	     -1.15289238	      8.96257713	      2.98112867	      8.88480461	      9.97111960	      0.00000000	     -8.88959795	      1.17084132	      6.61164406	     13.84807624	     -9.94574424	     22.26170372	     21.38386147	    119.73893098	     12.92927576	    -11.15600935	     36.47538857	     26.82105199	    109.81716400
     11.63333330	      3.10430831	      3.41371205	    194.95794943	      0.66030223	      1.10297460	      0.31164415	      6.88288086	      2.46578781	     25.36061397	      0.75619152	      4.49265237	     14.95390662	      0.00000000	      5.76605295	     -1.19511668	      9.74320052	      2.42372661	      8.82372707	     10.37913868	      0.00000000	     -8.49456787	      0.85234471	      7.13187509	     13.50708942	     -9.72605489	     22.52348887	     21.38947862	    119.74404764	     12.58569742	    -11.31542781	     36.39319887	     26.77919503	    109.78784084
     11.65000000	      3.14513087	      3.47972536	    195.74929879	      0.65676650	      1.10358340	      0.31417962	      7.18362599	      2.65069012	     24.95134463	      1.70412060	      4.93961336	     14.28891621	      0.00000000	      5.42524793	     -1.17963843	     10.51068306	      1.98266733	      8.67506285	     10.64899268	      0.00000000	     -8.13872059	      0.53872772	      7.50448281	     13.08733989	     -9.61475801	     22.97710664	     21.88715403	    119.74817918	     12.30186358	    -11.44947443	     36.32987584	     26.93017101	    109.76394957
     11.66666670	      3.44525865	      3.77270911	    196.92771223	      0.65414332	      1.10345614	      0.31728859	      8.09207749	      2.95866110	     23.32985984	      3.11917933	      5.73221991	     14.96796036	      0.00000000	      5.53857432	     -1.22329228	     13.44954885	      1.56988489	      8.09282124	      8.43298208	      0.00000000	     -7.47205002	      0.47287239	      7.27201049	     12.99864699	    -10.01272849	     26.19895294	     22.80122238	    119.66219836	     11.86704249	    -11.70832320	     36.26757067	     27.24874955	    109.65009071
     11.68333330	      3.36572147	      3.74335914	    197.73303590	      0.65064069	      1.10411551	      0.31990143	      8.25411594	      3.06343192	     22.85013864	      4.07515950	      6.23962140	     14.34685357	      0.00000000	      5.12210357	     -1.17711133	     14.03746029	      1.26048730	      7.89377215	      8.91083889	      0.00000000	     -7.25308664	      0.08794837	      7.81973784	     12.74553736	     -9.91182220	     26.48651468	     23.19366549	    119.67132798	     11.68040750	    -11.78976387	     36.25850375	     27.36058012	    109.64300091
     11.70000000	      3.31998451	      3.77330592	    198.68754800	      0.64730486	      1.10458389	      0.32242677	      8.60320111	      3.26044180	     22.41404095	      5.26739655	      6.77327242	     13.79432730	      0.00000000	      4.81361629	     -1.18451374	     14.79105825	      0.97705426	      7.84500220	      9.39721836	      0.00000000	     -7.00378783	     -0.23696537	      8.08570055	     12.58886590	     -9.82448368	     26.96087975	     24.00144850	    119.71356690	     11.48218100	    -11.97897728	     36.33566953	     27.43117427	    109.65281591
     11.71666670	      3.28352380	      3.84298474	    199.77011410	      0.64404557	      1.10491571	      0.32510229	      8.97365146	      3.47013278	     21.86309186	      6.39633169	      7.24265592	     13.28935446	      0.00000000	      4.63769579	     -1.19822877	     15.53796812	      0.85615205	      7.80303460	      9.80719847	      0.00000000	     -6.71323799	     -0.51556302	      8.35627547	     12.45058471	     -9.78116810	     27.57124145	     24.85933066	    119.74817857	     11.35062742	    -12.13738761	     36.45995857	     27.49934194	    109.67123172
     11.73333330	      3.46230090	      4.13030790	    201.36839237	      0.64187071	      1.10463572	      0.32874843	      9.82691388	      3.62803786	     19.77231693	      7.71942425	      7.94169902	     14.34775824	      0.00000000	      5.05199279	     -1.19965733	     17.27554783	      1.10220513	      7.91037020	      9.28294605	      0.00000000	     -6.13309818	     -0.50758772	      8.02473334	     12.71833569	    -10.14766055	     30.53661005	     25.88398944	    119.58196899	     11.26578589	    -12.34411543	     37.40069943	     27.47707630	    109.76688328
     11.75000000	      3.34096739	      4.06838948	    202.48588602	      0.63914762	      1.10510703	      0.33126126	     10.15051381	      3.70990565	     19.60349806	      8.79143566	      8.30135661	     13.99910245	      0.00000000	      4.68659118	     -1.13962127	     17.97826753	      0.82167938	      7.70820482	      9.85828872	      0.00000000	     -6.03576250	     -0.81276336	      8.28757442	     13.00228830	     -9.89942332	     30.78803497	     26.55689655	    119.54641294	     11.20732929	    -12.41374035	     37.37711338	     27.44200315	    109.74497807
     11.76666670	      3.20400206	      4.06293676	    203.84611350	      0.63647964	      1.10543736	      0.33398977	     10.50905755	      3.80684403	     19.21412232	      9.85279876	      8.60988864	     13.59626452	      0.00000000	      4.42246515	     -1.10784720	     18.85202515	      0.68344242	      7.72151852	     10.39908920	      0.00000000	     -5.90925227	     -1.03072214	      8.42203795	     13.30172358	     -9.70654253	     31.16378281	     27.35800571	    119.53633858	     11.14829020	    -12.47637890	     37.41987928	     27.40800688	    109.73400320
     11.78333330	      3.13215816	      4.26659124	    206.11358073	      0.63469289	      1.10539994	      0.33828821	     10.89973430	      3.74772241	     17.87808999	     10.55521946	      8.81797953	     13.76442953	      0.00000000	      4.68907858	     -1.04781896	     20.59468396	      1.02037750	      7.78122027	     10.59718900	      0.00000000	     -5.63384733	     -0.95119877	      7.65689558	     13.69710554	     -9.76539936	     32.46681326	     28.32896854	    119.46694708	     11.07477234	    -12.58010226	     37.87170954	     27.36775122	    109.74082164
